<svg xmlns="http://www.w3.org/2000/svg" xmlns:xlink="http://www.w3.org/1999/xlink" xmlns:inkscape="http://www.inkscape.org/namespaces/inkscape" version="1.1" width="2052" height="511.2" viewBox="0 0 2052 511.2">
<defs>
<clipPath id="clip_1">
<path transform="matrix(1,0,0,-1,18,493.2)" d="M0 475.2H2016V0H0Z"/>
</clipPath>
<clipPath id="clip_2">
<path transform="matrix(1,0,0,-1,18,493.2)" d="M0 475.2H2016V0H0Z"/>
</clipPath>
</defs>
<g clip-path="url(#clip_1)">
<path transform="matrix(1,0,0,-1,123.0288,277.9447)" d="M0 0C-19.481 0-31.773 5.908-36.18 8.407-38.963 13.406-41.978 29.54-42.442 40.219-41.282 41.81-37.803 42.264-36.876 40.901-33.397 29.313-23.888 7.044 3.015 7.044 22.497 7.044 32.005 19.542 32.005 33.176 32.005 43.173 29.918 54.307 12.988 64.987L-9.045 79.076C-20.641 86.574-34.093 99.526-34.093 118.159-34.093 139.745-16.93 157.242 13.22 157.242 20.409 157.242 28.758 155.878 34.789 154.288 37.803 153.378 41.05 152.925 42.906 152.925 44.993 147.471 47.081 134.746 47.081 125.203 46.153 123.839 42.442 123.157 41.282 124.521 38.268 135.428 32.005 150.198 9.741 150.198-12.988 150.198-17.858 135.428-17.858 124.975-17.858 111.796-6.726 102.253 1.856 97.026L20.409 85.665C35.021 76.803 49.4 63.623 49.4 42.037 49.4 17.042 30.15 0 0 0" fill="#221f20"/>
<path transform="matrix(1,0,0,-1,526.5648,158.4231)" d="M0 0C0 23.859-.464 27.495-15.075 28.631L-20.873 29.085C-22.265 29.995-21.801 34.084-20.409 34.766-7.422 34.312 .464 34.084 9.741 34.084 18.786 34.084 26.671 34.312 38.268 34.766 39.659 34.084 40.122 29.995 38.731 29.085L33.165 28.631C19.481 27.495 19.018 23.859 19.018 0V-79.075C19.018-93.391 19.713-99.299 23.888-103.616 26.439-106.115 30.846-108.842 49.167-108.842 68.881-108.842 73.752-107.933 77.462-105.888 82.101-103.161 88.131-94.981 92.77-83.392 94.161-82.256 98.567-83.165 98.567-84.756 98.567-87.255 92.073-110.432 88.826-116.567 76.999-116.113 54.966-115.886 31.078-115.886H9.741C0-115.886-7.422-116.113-20.409-116.567-21.801-115.886-22.265-112.25-20.873-110.887L-13.915-110.205C-.464-108.842 0-105.66 0-81.802Z" fill="#221f20"/>
<path transform="matrix(1,0,0,-1,718.82406,158.4231)" d="M0 0C0 23.632-.464 27.04-14.147 28.631L-17.858 29.085C-19.25 29.995-18.786 34.084-17.394 34.766-7.422 34.312 .464 34.084 9.973 34.084H53.574C68.417 34.084 82.101 34.084 84.884 34.766 86.275 30.903 87.667 14.543 88.595 4.545 87.667 3.182 83.956 2.727 82.797 4.09 79.318 14.77 77.23 22.723 65.171 25.677 60.3 26.813 52.879 27.04 42.674 27.04H25.975C19.018 27.04 19.018 26.586 19.018 17.952V-27.494C19.018-33.857 19.713-33.857 26.671-33.857H40.122C49.864-33.857 57.053-33.402 59.836-32.493 62.619-31.585 64.243-30.221 65.403-24.54L67.257-15.224C68.417-13.86 72.36-13.86 73.288-15.451 73.288-20.904 72.36-29.766 72.36-38.401 72.36-46.581 73.288-55.216 73.288-60.215 72.36-61.806 68.417-61.806 67.257-60.443L65.171-51.58C64.243-47.49 62.619-44.082 57.981-42.946 54.734-42.037 49.167-41.81 40.122-41.81H26.671C19.713-41.81 19.018-42.037 19.018-47.945V-79.984C19.018-92.027 19.713-99.752 23.425-103.616 26.207-106.342 31.077-108.842 51.487-108.842 69.345-108.842 76.071-107.933 81.174-105.434 85.347-103.161 91.61-95.208 97.64-83.392 99.264-82.256 102.51-82.938 103.438-84.983 101.815-92.936 96.017-110.432 93.001-116.567 72.129-116.113 51.487-115.886 30.846-115.886H9.973C0-115.886-7.885-116.113-21.569-116.567-22.96-115.886-23.425-112.25-22.033-110.887L-14.38-110.205C-1.16-109.069 0-105.66 0-81.802Z" fill="#221f20"/>
<path transform="matrix(1,0,0,-1,1043.0484,235.68039)" d="M0 0C0-6.817 0-33.857 .696-39.765 .231-41.128-1.16-42.264-3.711-42.264-6.494-38.401-13.22-30.449-33.397-7.953L-87.204 52.035C-93.465 59.079-109.236 77.712-114.107 82.711H-114.57C-115.498 79.984-115.73 74.758-115.73 67.941V18.406C-115.73 7.726-115.498-21.814-111.555-28.63-110.164-31.13-105.525-32.493-99.727-32.948L-92.538-33.63C-91.146-35.448-91.378-38.174-93.002-39.31-103.438-38.856-111.555-38.629-120.137-38.629-129.878-38.629-136.139-38.856-144.256-39.31-145.88-38.174-146.112-34.993-144.721-33.63L-138.458-32.948C-133.124-32.266-129.413-30.903-128.254-28.403-125.007-20.223-125.239 7.499-125.239 18.406V84.075C-125.239 90.437-125.471 95.209-130.341 100.435-133.588 103.616-139.155 105.206-144.721 105.888L-148.663 106.342C-150.054 107.706-150.054 111.114-148.2 112.024-138.458 111.342-126.166 111.342-121.992 111.342-118.281 111.342-114.339 111.569-111.323 112.024-106.685 100.435-79.318 70.441-71.664 62.033L-49.168 37.265C-33.165 19.769-21.801 7.044-10.901-3.863H-10.437C-9.509-2.727-9.509 .909-9.509 5.68V54.307C-9.509 64.987-9.741 94.527-14.147 101.343-15.539 103.389-19.25 104.752-28.527 105.888L-32.47 106.342C-34.093 107.706-33.861 111.342-32.005 112.024-21.337 111.569-13.452 111.342-4.639 111.342 5.334 111.342 11.364 111.569 19.249 112.024 21.105 110.888 21.105 107.706 19.714 106.342L16.467 105.888C9.045 104.752 4.406 102.934 3.478 101.117-.464 92.936 0 64.76 0 54.307Z" fill="#221f20"/>
<path transform="matrix(1,0,0,-1,1219.5335,240.2248)" d="M0 0C0-23.859 .464-27.268 13.916-28.404L21.338-29.085C22.729-29.994 22.265-34.084 20.873-34.766 7.654-34.312-.231-34.084-9.509-34.084-18.786-34.084-26.903-34.312-41.746-34.766-43.137-34.084-43.602-30.221-41.746-29.085L-33.397-28.404C-20.177-27.268-19.017-23.859-19.017 0V101.571C-19.017 108.615-19.017 108.842-25.975 108.842H-38.731C-48.703 108.842-61.459 108.387-67.257 103.162-72.823 98.162-75.143 93.163-77.694 87.483-79.549 86.119-82.796 87.256-83.724 89.073-80.013 99.299-76.535 113.841-74.911 122.93-74.216 123.385-71.2 123.612-70.504 122.93-69.113 115.659-61.459 115.886-50.791 115.886H43.138C55.662 115.886 57.749 116.341 61.228 122.249 62.388 122.703 64.939 122.476 65.403 121.567 62.851 112.25 61.228 93.845 61.924 87.028 60.997 85.211 57.053 85.211 55.894 86.573 55.198 92.255 53.575 100.662 50.096 103.162 44.761 107.025 35.949 108.842 23.192 108.842H6.726C-.231 108.842 0 108.615 0 101.116Z" fill="#221f20"/>
<path transform="matrix(1,0,0,-1,1491.5725,181.3731)" d="M0 0C0 14.089-.464 40.219-4.407 47.036-6.03 49.763-10.205 51.354-16.003 51.809L-21.801 52.263C-23.193 53.853-22.729 56.807-21.337 57.716-12.524 57.262-3.943 57.034 5.102 57.034 14.843 57.034 21.105 57.262 29.454 57.716 31.31 56.58 31.078 53.626 29.918 52.263L24.352 51.809C18.553 51.354 14.147 49.309 12.755 46.355 9.508 38.856 9.508 12.725 9.508 0V-25.677C9.508-45.445 6.262-66.35-6.726-79.984-16.699-90.664-33.861-96.572-51.023-96.572-67.026-96.572-83.028-93.617-94.393-84.074-106.685-74.076-112.483-57.488-112.483-30.449V23.177C-112.483 46.809-112.947 50.672-126.399 51.809L-132.197 52.263C-133.588 53.171-133.125 57.034-131.732 57.716-120.136 57.262-112.251 57.034-102.974 57.034-93.465 57.034-85.812 57.262-74.448 57.716-73.056 57.034-72.592 53.171-73.983 52.263L-79.55 51.809C-93.001 50.672-93.465 46.809-93.465 23.177V-25.903C-93.465-62.487-81.869-86.573-46.385-86.573-12.756-86.573 0-60.67 0-26.131Z" fill="#221f20"/>
<path transform="matrix(1,0,0,-1,1636.98,191.14389)" d="M0 0C0-4.09 0-6.589 .696-7.498 1.391-8.18 4.87-8.635 16.699-8.635 25.048-8.635 33.861-7.725 40.587-2.726 46.848 2.046 52.183 9.998 52.183 25.45 52.183 43.401 40.818 60.443 15.075 60.443 .696 60.443 0 59.534 0 53.172ZM-19.018 32.494C-19.018 54.081-19.713 57.944-29.223 59.08L-36.644 59.989C-38.268 61.125-38.268 64.76-36.412 65.669-23.425 66.805-7.422 67.487 15.307 67.487 29.686 67.487 43.369 66.351 54.038 60.67 65.171 54.989 73.288 44.764 73.288 28.859 73.288 7.271 55.893-4.544 44.297-9.089 43.138-10.452 44.297-12.724 45.457-14.543 64.011-43.854 76.302-62.033 92.073-74.985 96.017-78.393 101.814-80.893 108.076-81.348 109.236-81.802 109.468-83.62 108.309-84.529 106.221-85.21 102.51-85.665 98.104-85.665 78.39-85.665 66.562-79.984 50.095-57.034 44.065-48.626 34.557-32.947 27.367-22.723 23.888-17.723 20.177-15.451 10.901-15.451 .464-15.451 0-15.679 0-20.45V-49.081C0-72.94 .464-75.666 13.915-77.485L18.786-78.166C20.177-79.302 19.714-83.165 18.322-83.846 7.885-83.392 0-83.165-9.277-83.165-19.018-83.165-27.367-83.392-38.268-83.846-39.659-83.165-40.122-79.757-38.731-78.166L-32.933-77.485C-19.481-75.894-19.018-72.94-19.018-49.081Z" fill="#221f20"/>
<path transform="matrix(1,0,0,-1,1831.5567,158.4231)" d="M0 0C0 23.632-.464 27.04-14.147 28.631L-17.858 29.085C-19.25 29.995-18.786 34.084-17.394 34.766-7.422 34.312 .464 34.084 9.973 34.084H53.574C68.417 34.084 82.101 34.084 84.884 34.766 86.275 30.903 87.667 14.543 88.595 4.545 87.667 3.182 83.956 2.727 82.797 4.09 79.318 14.77 77.23 22.723 65.171 25.677 60.3 26.813 52.879 27.04 42.674 27.04H25.976C19.018 27.04 19.018 26.586 19.018 17.952V-27.494C19.018-33.857 19.713-33.857 26.672-33.857H40.123C49.864-33.857 57.053-33.402 59.836-32.493 62.619-31.585 64.243-30.221 65.403-24.54L67.257-15.224C68.417-13.86 72.36-13.86 73.288-15.451 73.288-20.904 72.36-29.766 72.36-38.401 72.36-46.581 73.288-55.216 73.288-60.215 72.36-61.806 68.417-61.806 67.257-60.443L65.171-51.58C64.243-47.49 62.619-44.082 57.981-42.946 54.734-42.037 49.167-41.81 40.123-41.81H26.672C19.713-41.81 19.018-42.037 19.018-47.945V-79.984C19.018-92.027 19.713-99.752 23.425-103.616 26.207-106.342 31.078-108.842 51.487-108.842 69.345-108.842 76.071-107.933 81.174-105.434 85.348-103.161 91.61-95.208 97.64-83.392 99.264-82.256 102.51-82.938 103.438-84.983 101.815-92.936 96.017-110.432 93.001-116.567 72.129-116.113 51.487-115.886 30.846-115.886H9.973C0-115.886-7.885-116.113-21.569-116.567-22.96-115.886-23.425-112.25-22.032-110.887L-14.38-110.205C-1.16-109.069 0-105.66 0-81.802Z" fill="#221f20"/>
<path transform="matrix(1,0,0,-1,349.72145,294.0969)" d="M0 0C-57.57 0-104.239 46.669-104.239 104.239-104.239 161.808-57.57 208.478 0 208.478 57.569 208.478 104.239 161.808 104.239 104.239 104.239 46.669 57.569 0 0 0M-8.251 213.687C-71.965 213.687-123.616 162.036-123.616 98.322-123.616 34.607-71.965-17.044-8.251-17.044 55.464-17.044 107.115 34.607 107.115 98.322 107.115 162.036 55.464 213.687-8.251 213.687" fill="#646369"/>
<path transform="matrix(1,0,0,-1,401.94343,97.4594)" d="M0 0 7.938 24.955 20.312-17.411H-20.794Z" fill="#1278b8"/>
<path transform="matrix(1,0,0,-1,756.6255,368.5404)" d="M0 0V-4.726H-19.881V-54.267H-25.015V-4.726H-44.977V0Z" fill="#646369"/>
<path transform="matrix(1,0,0,-1,766.56619,368.5404)" d="M0 0V-20.778C3.422-16.324 7.631-14.097 12.63-14.097 18.496-14.097 22.461-16.215 24.526-20.452 25.504-22.462 25.992-25.178 25.992-28.6V-54.267H21.348V-29.904C21.348-22.028 18.305-18.089 12.222-18.089 9.342-18.089 6.789-19.04 4.563-20.941 2.282-22.897 .923-25.314 .489-28.192 .163-29.877 0-32.892 0-37.237V-54.267H-4.645V0Z" fill="#646369"/>
<path transform="matrix(1,0,0,-1,830.93667,399.9105)" d="M0 0C-.762 9.071-4.889 13.607-12.385 13.607-19.881 13.607-24.146 9.071-25.178 0ZM-25.259-3.83C-25.151-14.64-20.751-20.045-12.059-20.045-6.247-20.045-2.228-16.867 0-10.512L4.482-11.245C1.602-19.556-3.993-23.712-12.304-23.712-24.2-23.712-30.148-16.895-30.148-3.26-30.148 3.149-28.546 8.174-25.341 11.815-22.191 15.453-17.844 17.273-12.304 17.273-.896 17.273 4.861 10.238 4.971-3.83Z" fill="#646369"/>
<path transform="matrix(1,0,0,-1,872.0012,418.4886)" d="M0 0H20.207C28.464 0 32.593 3.639 32.593 10.919 32.593 17.926 28.546 21.43 20.452 21.43H0ZM19.229 26.074C26.563 26.074 30.229 29.36 30.229 35.934 30.229 40.55 28.165 43.43 24.037 44.571 22.19 45.113 19.691 45.386 16.541 45.386H0V26.074ZM-5.215 49.948H18.496C23.656 49.948 27.757 48.726 30.8 46.282 33.787 43.782 35.282 40.441 35.282 36.259 35.282 31.153 32.701 27.133 27.541 24.2 30.745 23.113 33.082 21.782 34.548 20.207 36.775 17.708 37.889 14.612 37.889 10.919 37.889 6.301 36.341 2.608 33.244-.163 30.093-2.934 25.938-4.319 20.778-4.319H-5.215Z" fill="#646369"/>
<path transform="matrix(1,0,0,-1,947.534,399.9105)" d="M0 0C-.762 9.071-4.889 13.607-12.385 13.607-19.881 13.607-24.146 9.071-25.178 0ZM-25.26-3.83C-25.151-14.64-20.751-20.045-12.059-20.045-6.247-20.045-2.228-16.867 0-10.512L4.482-11.245C1.602-19.556-3.993-23.712-12.304-23.712-24.2-23.712-30.148-16.895-30.148-3.26-30.148 3.149-28.546 8.174-25.341 11.815-22.191 15.453-17.844 17.273-12.304 17.273-.896 17.273 4.861 10.238 4.971-3.83Z" fill="#646369"/>
<path transform="matrix(1,0,0,-1,965.7859,383.533)" d="M0 0V-5.785C3.422-1.332 7.631 .896 12.63 .896 18.496 .896 22.461-1.222 24.526-5.459 25.504-7.469 25.993-10.185 25.993-13.608V-39.274H21.348V-14.911C21.348-7.035 18.305-3.097 12.222-3.097 9.342-3.097 6.789-4.047 4.563-5.948 2.282-7.904 .923-10.322 .489-13.2 .163-14.884 0-17.899 0-22.245V-39.274H-4.645V0Z" fill="#646369"/>
<path transform="matrix(1,0,0,-1,1030.1565,399.9105)" d="M0 0C-.762 9.071-4.889 13.607-12.385 13.607-19.881 13.607-24.146 9.071-25.178 0ZM-25.26-3.83C-25.151-14.64-20.751-20.045-12.059-20.045-6.247-20.045-2.228-16.867 0-10.512L4.482-11.245C1.602-19.556-3.993-23.712-12.304-23.712-24.2-23.712-30.148-16.895-30.148-3.26-30.148 3.149-28.546 8.174-25.341 11.815-22.191 15.453-17.844 17.273-12.304 17.273-.896 17.273 4.861 10.238 4.97-3.83Z" fill="#646369"/>
<path transform="matrix(1,0,0,-1,1045.2306,383.533)" d="M0 0V4.156C0 12.031 3.178 15.97 9.533 15.97 10.782 15.97 12.712 15.644 15.319 14.993L14.504 11.326C12.712 11.542 11.434 11.652 10.674 11.652 6.6 11.652 4.563 8.935 4.563 3.504V.081H12.793V-3.341H4.563V-39.274H0V-3.423H-6.355V0Z" fill="#646369"/>
<path transform="matrix(1,0,0,-1,17.999878,493.19999)" d="M1050.299 70.882H1045.736V110.156009H1050.299ZM1050.299 118.222H1045.736V125.148H1050.299Z" fill="#646369"/>
<path transform="matrix(1,0,0,-1,1086.1792,383.45188)" d="M0 0H7.414V-3.422H0V-29.251C0-33.87 1.467-36.178 4.4-36.178 5.052-36.178 6.274-36.015 8.066-35.689L8.637-39.355C6.409-39.735 4.779-39.925 3.748-39.925 .542-39.925-1.658-39.22-2.852-37.807-4.047-36.341-4.645-33.707-4.645-29.903V-3.504H-10.104V-.081H-4.645V10.023L0 13.038Z" fill="#646369"/>
<path transform="matrix(1,0,0,-1,1124.805,393.59638)" d="M0 0C-1.522 4.835-4.835 7.252-9.941 7.252-16.243 7.252-19.393 5.133-19.393 .897-19.393-1.114-18.551-2.662-16.867-3.748-15.184-4.835-12.06-5.866-7.496-6.844 1.63-8.746 6.192-12.495 6.192-18.088 6.192-26.074 1.059-30.066-9.208-30.066-18.117-30.066-23.467-26.237-25.26-18.577L-20.534-17.762C-19.067-23.522-15.237-26.4-9.045-26.4-2.147-26.4 1.304-23.848 1.304-18.74 1.304-15.265-2.526-12.711-10.185-11.081-19.421-9.126-24.038-5.432-24.038 0-24.038 3.313-22.762 5.975-20.208 7.985-17.655 9.994-14.287 11-10.104 11-2.119 11 2.77 7.523 4.563 .571Z" fill="#646369"/>
<path transform="matrix(1,0,0,-1,1170.795,378.39949)" d="M0 0C-3.834-4.4-5.75-10.159-5.75-17.274-5.75-24.391-3.834-30.148 0-34.549 3.775-38.948 8.763-41.148 14.964-41.148 21.108-41.148 26.096-38.948 29.93-34.549 33.706-30.148 35.595-24.391 35.595-17.274 35.595-10.159 33.706-4.4 29.93 0 26.096 4.4 21.108 6.6 14.964 6.6 8.763 6.6 3.775 4.4 0 0M34.073 3.259C38.807-1.848 41.175-8.692 41.175-17.274 41.175-25.858 38.807-32.675 34.073-37.726 29.394-42.778 23.024-45.304 14.964-45.304 6.904-45.304 .507-42.778-4.228-37.726-8.962-32.675-11.33-25.858-11.33-17.274-11.33-8.692-8.962-1.848-4.228 3.259 .507 8.311 6.904 10.837 14.964 10.837 22.968 10.837 29.337 8.311 34.073 3.259" fill="#646369"/>
<path transform="matrix(1,0,0,-1,1222.9269,383.533)" d="M0 0V4.156C0 12.031 3.178 15.97 9.533 15.97 10.782 15.97 12.712 15.644 15.319 14.993L14.504 11.326C12.712 11.542 11.434 11.652 10.674 11.652 6.6 11.652 4.563 8.935 4.563 3.504V.081H12.793V-3.341H4.563V-39.274H0V-3.423H-6.355V0Z" fill="#646369"/>
<path transform="matrix(1,0,0,-1,17.999878,493.19999)" d="M1251.318 70.393H1246.266V124.659999H1251.318Z" fill="#646369"/>
<path transform="matrix(1,0,0,-1,1285.2905,383.533)" d="M0 0V-5.785C3.422-1.332 7.631 .896 12.63 .896 18.496 .896 22.461-1.222 24.526-5.459 25.504-7.469 25.993-10.185 25.993-13.608V-39.274H21.348V-14.911C21.348-7.035 18.305-3.097 12.222-3.097 9.342-3.097 6.79-4.047 4.563-5.948 2.282-7.904 .923-10.322 .489-13.2 .163-14.884 0-17.899 0-22.245V-39.274H-4.645V0Z" fill="#646369"/>
<path transform="matrix(1,0,0,-1,1328.287,383.533)" d="M0 0V-5.785C3.422-1.332 7.631 .896 12.63 .896 18.496 .896 22.461-1.222 24.526-5.459 25.504-7.469 25.993-10.185 25.993-13.608V-39.274H21.348V-14.911C21.348-7.035 18.305-3.097 12.222-3.097 9.342-3.097 6.79-4.047 4.563-5.948 2.282-7.904 .923-10.322 .489-13.2 .163-14.884 0-17.899 0-22.245V-39.274H-4.645V0Z" fill="#646369"/>
<path transform="matrix(1,0,0,-1,1381.5004,386.3847)" d="M0 0C-8.584 0-12.875-5.569-12.875-16.704-12.875-21.866-11.707-25.966-9.371-29.007-7.036-32.104-3.911-33.652 0-33.652 3.801-33.652 6.871-32.159 9.207-29.17 11.489-26.129 12.63-22.11 12.63-17.111 12.63-5.704 8.419 0 0 0M-.245-37.237C-5.569-37.237-9.833-35.418-13.038-31.778-16.188-28.139-17.763-23.223-17.763-17.029-17.763-3.178-11.897 3.748-.163 3.748 4.453 3.748 8.256 2.416 11.244-.245 15.372-3.884 17.437-9.425 17.437-16.867 17.437-30.448 11.542-37.237-.245-37.237" fill="#646369"/>
<path transform="matrix(1,0,0,-1,1409.0108,383.533)" d="M0 0 12.956-33.652 25.993 0H30.882L15.156-39.274H10.919L-4.889 0Z" fill="#646369"/>
<path transform="matrix(1,0,0,-1,1471.7809,401.70329)" d="M0 0C-2.281-.925-6.437-1.902-12.466-2.934-16.595-3.694-19.42-4.618-20.94-5.704-22.462-6.791-23.222-8.474-23.222-10.756-23.222-15.482-20.343-17.844-14.585-17.844-11.489-17.844-8.61-17.058-5.948-15.482-3.287-13.907-1.603-11.978-.896-9.696-.299-7.904 0-5.514 0-2.526ZM-27.214 7.496C-25.748 15.209-20.099 19.066-10.266 19.066-3.422 19.066 .978 17.409 2.934 14.096 4.128 11.978 4.726 8.066 4.726 2.363L4.563-8.719C4.563-13.554 5.35-17.681 6.926-21.104H1.875C1.223-19.366 .76-17.384 .489-15.156-3.694-19.665-9.072-21.919-15.645-21.919-23.902-21.919-28.029-18.307-28.029-11.082-28.029-5.541-25.341-1.984-19.963-.408-18.225 .135-15.482 .678-11.733 1.222-6.302 1.982-2.391 2.797 0 3.667V6.599C0 12.52-3.422 15.482-10.266 15.482-17.111 15.482-21.185 12.575-22.489 6.762Z" fill="#646369"/>
<path transform="matrix(1,0,0,-1,1493.5368,383.45188)" d="M0 0H7.414V-3.422H0V-29.251C0-33.87 1.467-36.178 4.4-36.178 5.052-36.178 6.273-36.015 8.066-35.689L8.637-39.355C6.409-39.735 4.779-39.925 3.748-39.925 .542-39.925-1.658-39.22-2.852-37.807-4.047-36.341-4.645-33.707-4.645-29.903V-3.504H-10.104V-.081H-4.645V10.023L0 13.038Z" fill="#646369"/>
<path transform="matrix(1,0,0,-1,17.999756,493.19999)" d="M1495.744 70.393H1491.181V109.66699H1495.744ZM1495.744 117.733H1491.181V124.659008H1495.744Z" fill="#646369"/>
<path transform="matrix(1,0,0,-1,1525.5258,383.5735)" d="M0 0 12.956-33.652 25.993 0H30.882L15.156-39.274H10.919L-4.889 0Z" fill="#646369"/>
<path transform="matrix(1,0,0,-1,1589.2542,399.9105)" d="M0 0C-.762 9.071-4.889 13.607-12.385 13.607-19.881 13.607-24.146 9.071-25.178 0ZM-25.26-3.83C-25.151-14.64-20.751-20.045-12.059-20.045-6.247-20.045-2.228-16.867 0-10.512L4.482-11.245C1.602-19.556-3.993-23.712-12.304-23.712-24.2-23.712-30.148-16.895-30.148-3.26-30.148 3.149-28.546 8.174-25.341 11.815-22.191 15.453-17.844 17.273-12.304 17.273-.896 17.273 4.861 10.238 4.97-3.83Z" fill="#646369"/>
<path transform="matrix(1,0,0,-1,1663.2405,368.5404)" d="M0 0V-4.726H-19.881V-54.267H-25.015V-4.726H-44.977V0Z" fill="#646369"/>
<path transform="matrix(1,0,0,-1,1671.2157,368.5404)" d="M0 0V-20.778C3.422-16.324 7.631-14.097 12.63-14.097 18.496-14.097 22.461-16.215 24.526-20.452 25.504-22.462 25.993-25.178 25.993-28.6V-54.267H21.348V-29.904C21.348-22.028 18.306-18.089 12.222-18.089 9.342-18.089 6.79-19.04 4.563-20.941 2.282-22.897 .923-25.314 .489-28.192 .163-29.877 0-32.892 0-37.237V-54.267H-4.645V0Z" fill="#646369"/>
<path transform="matrix(1,0,0,-1,17.999756,493.2)" d="M1696.544 70.393H1691.981V109.66699H1696.544ZM1696.544 117.733H1691.981V124.659008H1696.544Z" fill="#646369"/>
<path transform="matrix(1,0,0,-1,1729.9933,383.53303)" d="M0 0V-5.785C3.422-1.332 7.631 .896 12.63 .896 18.496 .896 22.461-1.222 24.526-5.459 25.504-7.469 25.993-10.185 25.993-13.608V-39.274H21.348V-14.911C21.348-7.035 18.306-3.097 12.222-3.097 9.342-3.097 6.79-4.047 4.563-5.948 2.282-7.904 .923-10.322 .489-13.2 .163-14.884 0-17.899 0-22.245V-39.274H-4.645V0Z" fill="#646369"/>
<path transform="matrix(1,0,0,-1,1772.521,368.5404)" d="M0 0V-33.163L19.148-14.993H25.667L9.289-29.659 26.889-54.267H20.941L5.866-32.756 0-38.052V-54.267H-4.645V0Z" fill="#646369"/>
<path transform="matrix(1,0,0,-1,17.999756,493.2)" d="M1792.578 70.393H1788.015V109.66699H1792.578ZM1792.578 117.733H1788.015V124.659008H1792.578Z" fill="#646369"/>
<path transform="matrix(1,0,0,-1,1826.0333,383.53303)" d="M0 0V-5.785C3.422-1.332 7.631 .896 12.63 .896 18.496 .896 22.461-1.222 24.526-5.459 25.504-7.469 25.993-10.185 25.993-13.608V-39.274H21.348V-14.911C21.348-7.035 18.305-3.097 12.222-3.097 9.342-3.097 6.79-4.047 4.563-5.948 2.282-7.904 .923-10.322 .489-13.2 .163-14.884 0-17.899 0-22.245V-39.274H-4.645V0Z" fill="#646369"/>
<path transform="matrix(1,0,0,-1,1879.7536,386.54774)" d="M0 0C-9.073 0-13.608-5.514-13.608-16.541-13.608-21.703-12.386-25.83-9.941-28.926-7.496-31.969-4.21-33.489-.082-33.489 4.156-33.489 7.523-32.023 10.022-29.089 12.52-26.102 13.77-22.11 13.77-17.111 13.77-5.704 9.179 0 0 0M18.333 3.015V-33.163C18.333-45.82 11.978-52.148-.734-52.148-10.947-52.148-16.325-48.291-16.867-40.578L-12.304-41.474C-11.326-46.091-7.633-48.4-1.223-48.4 8.718-48.4 13.689-43.646 13.689-34.141V-30.311C9.94-34.875 5.052-37.155-.978-37.155-6.247-37.155-10.458-35.309-13.608-31.615-16.813-27.867-18.415-22.925-18.415-16.785-18.415-10.54-16.813-5.541-13.608-1.793-10.458 2.009-6.247 3.911-.978 3.911 2.389 3.911 5.323 3.259 7.822 1.956 9.994 .815 11.949-1.033 13.689-3.586V3.015Z" fill="#646369"/>
<path transform="matrix(1,0,0,-1,79.267459,337.72514)" stroke-width="3" stroke-linecap="butt" stroke-miterlimit="10" stroke-linejoin="miter" fill="none" stroke="#646369" d="M0 0H1844.165"/>
<path transform="matrix(1,0,0,-1,1956.3045,128.57433)" d="M0 0C-7.263 0-13.17-5.908-13.17-13.17-13.17-20.433-7.263-26.342 0-26.342 7.263-26.342 13.171-20.433 13.171-13.17 13.171-5.908 7.263 0 0 0M0-29.598C-9.058-29.598-16.427-22.229-16.427-13.17-16.427-4.113-9.058 3.256 0 3.256 9.058 3.256 16.428-4.113 16.428-13.17 16.428-22.229 9.058-29.598 0-29.598" fill="#221f20"/>
</g>
<text fill="#221f20" xml:space="preserve" transform="matrix(1 0 -0 1 18 493.2)" font-size="27.1705" font-family="Bahnschrift"><tspan y="-341.7593" x="1930.002">R</tspan></text>
<g clip-path="url(#clip_2)">
<path transform="matrix(1,0,0,-1,1915.4413,364.0644)" d="M0 0C-6.03 0-10.936-4.906-10.936-10.936-10.936-16.967-6.03-21.873 0-21.873 6.03-21.873 10.936-16.967 10.936-10.936 10.936-4.906 6.03 0 0 0M0-23.094C-6.704-23.094-12.158-17.64-12.158-10.936-12.158-4.233-6.704 1.221 0 1.221 6.704 1.221 12.157-4.233 12.157-10.936 12.157-17.64 6.704-23.094 0-23.094" fill="#646369"/>
<path transform="matrix(1,0,0,-1,1912.231,369.4992)" d="M0 0V-5.575H2.511C3.429-5.575 4.195-5.298 4.808-4.745 5.421-4.191 5.728-3.474 5.728-2.593 5.728-1.807 5.454-1.178 4.907-.707 4.36-.235 3.569 0 2.533 0ZM9.341-13.138H7.138L4.428-8.967C3.921-8.188 3.488-7.688 3.128-7.465 2.768-7.243 2.331-7.132 1.817-7.132H0V-13.138H-1.851V1.558H2.864C4.237 1.558 5.381 1.22 6.295 .543 7.209-.133 7.666-1.131 7.666-2.449 7.666-3.488 7.376-4.359 6.797-5.063 6.216-5.766 5.42-6.275 4.406-6.589V-6.63C4.737-6.815 5.026-7.016 5.276-7.235 5.525-7.453 5.79-7.775 6.069-8.198Z" fill="#646369"/>
</g>
</svg>
